<?xml version="1.0" encoding="UTF-8" standalone="no"?>
<!DOCTYPE svg PUBLIC "-//W3C//DTD SVG 20010904//EN"
"http://www.w3.org/TR/2001/REC-SVG-20010904/DTD/svg10.dtd">
<!-- Created with Inkscape (http://www.inkscape.org/) -->
<svg
   width="320.00000pt"
   height="240.00000pt"
   xmlns="http://www.w3.org/2000/svg"
   xmlns:cc="http://web.resource.org/cc/"
   xmlns:inkscape="http://www.inkscape.org/namespaces/inkscape"
   xmlns:sodipodi="http://sodipodi.sourceforge.net/DTD/sodipodi-0.dtd"
   xmlns:rdf="http://www.w3.org/1999/02/22-rdf-syntax-ns#"
   xmlns:dc="http://purl.org/dc/elements/1.1/"
   xmlns:xlink="http://www.w3.org/1999/xlink"
   id="svg1"
   sodipodi:version="0.32"
   inkscape:version="0.40"
   sodipodi:docbase="/home/nicu/Desktop"
   sodipodi:docname="package.svg">
  <defs
     id="defs3">
    <linearGradient
       id="linearGradient2446">
      <stop
         style="stop-color:#e0e0e0;stop-opacity:1.0000000;"
         offset="0.0000000"
         id="stop2447" />
      <stop
         style="stop-color:#ffffff;stop-opacity:1.0000000;"
         offset="1.0000000"
         id="stop2448" />
    </linearGradient>
    <linearGradient
       id="linearGradient2414">
      <stop
         style="stop-color:#e3b681;stop-opacity:1.0000000;"
         offset="0.0000000"
         id="stop2415" />
      <stop
         style="stop-color:#fde8b0;stop-opacity:1.0000000;"
         offset="1.0000000"
         id="stop2416" />
    </linearGradient>
    <linearGradient
       inkscape:collect="always"
       xlink:href="#linearGradient2414"
       id="linearGradient2417"
       gradientTransform="scale(1.074789,0.930415)"
       x1="278.57925"
       y1="292.69550"
       x2="185.43509"
       y2="206.95964"
       gradientUnits="userSpaceOnUse" />
    <linearGradient
       inkscape:collect="always"
       xlink:href="#linearGradient2414"
       id="linearGradient2421"
       gradientTransform="scale(0.923936,1.082326)"
       x1="105.50127"
       y1="249.09824"
       x2="181.91243"
       y2="184.14174"
       gradientUnits="userSpaceOnUse" />
    <linearGradient
       inkscape:collect="always"
       xlink:href="#linearGradient2414"
       id="linearGradient2425"
       gradientTransform="scale(1.464905,0.682638)"
       x1="242.88925"
       y1="281.30658"
       x2="155.25755"
       y2="210.24693"
       gradientUnits="userSpaceOnUse" />
    <linearGradient
       inkscape:collect="always"
       xlink:href="#linearGradient2414"
       id="linearGradient2429"
       gradientTransform="scale(1.126112,0.888011)"
       x1="59.088074"
       y1="219.26735"
       x2="154.06703"
       y2="158.91740"
       gradientUnits="userSpaceOnUse" />
    <linearGradient
       inkscape:collect="always"
       xlink:href="#linearGradient2414"
       id="linearGradient2433"
       gradientTransform="scale(1.183216,0.845154)"
       x1="293.39136"
       y1="44.553894"
       x2="201.49730"
       y2="119.48067"
       gradientUnits="userSpaceOnUse" />
    <linearGradient
       inkscape:collect="always"
       xlink:href="#linearGradient2414"
       id="linearGradient2437"
       gradientTransform="scale(1.367131,0.731459)"
       x1="77.193398"
       y1="33.315296"
       x2="146.54892"
       y2="114.86623"
       gradientUnits="userSpaceOnUse" />
    <linearGradient
       inkscape:collect="always"
       xlink:href="#linearGradient2414"
       id="linearGradient2441"
       gradientTransform="scale(1.080123,0.925820)"
       x1="286.47586"
       y1="118.48305"
       x2="272.26962"
       y2="142.41504"
       gradientUnits="userSpaceOnUse" />
    <linearGradient
       inkscape:collect="always"
       xlink:href="#linearGradient2414"
       id="linearGradient2445"
       gradientTransform="scale(0.880750,1.135396)"
       x1="118.92645"
       y1="96.167511"
       x2="137.29349"
       y2="112.79904"
       gradientUnits="userSpaceOnUse" />
    <linearGradient
       inkscape:collect="always"
       xlink:href="#linearGradient2446"
       id="linearGradient2449"
       gradientTransform="scale(1.140232,0.877015)"
       x1="211.84027"
       y1="162.05029"
       x2="164.58022"
       y2="115.26358"
       gradientUnits="userSpaceOnUse" />
    <linearGradient
       inkscape:collect="always"
       xlink:href="#linearGradient2446"
       id="linearGradient2453"
       gradientTransform="scale(0.673357,1.485096)"
       x1="212.28732"
       y1="86.987061"
       x2="179.59641"
       y2="60.985897"
       gradientUnits="userSpaceOnUse" />
  </defs>
  <sodipodi:namedview
     id="base"
     pagecolor="#ffffff"
     bordercolor="#666666"
     borderopacity="1.0"
     inkscape:pageopacity="0.0"
     inkscape:pageshadow="2"
     inkscape:zoom="1.0000000"
     inkscape:cx="272.52580"
     inkscape:cy="120.00003"
     inkscape:current-layer="svg1"
     inkscape:window-width="1095"
     inkscape:window-height="724"
     inkscape:window-x="0"
     inkscape:window-y="25" />
  <metadata
     id="metadata4">
    <rdf:RDF
       id="RDF5">
      <cc:Work
         rdf:about=""
         id="Work6">
        <dc:format
           id="format7">image/svg+xml</dc:format>
        <dc:type
           id="type9"
           rdf:resource="http://purl.org/dc/dcmitype/StillImage" />
      </cc:Work>
    </rdf:RDF>
  </metadata>
  <g
     inkscape:label="Layer 1"
     inkscape:groupmode="layer"
     id="layer1" />
  <path
     style="fill:url(#linearGradient2453);fill-opacity:1.0;fill-rule:evenodd;stroke:none;stroke-width:1.0000000pt;stroke-linecap:butt;stroke-linejoin:miter;stroke-opacity:1.0000000;"
     d="M 149.46429,63.214286 C 149.46429,63.214286 110.89286,56.785714 111.42857,60.535714 C 111.96429,64.285714 117.85714,76.607143 118.92857,89.464286 C 120.00000,102.32143 122.67857,126.96429 124.82143,133.39286 C 126.96429,139.82143 129.10714,138.21429 129.10714,138.21429 C 129.10714,138.21429 145.70873,143.89710 148.39286,143.57143 C 151.60714,146.25000 147.32143,72.321429 149.46429,63.214286 z "
     id="path2405"
     sodipodi:nodetypes="ccccccc" />
  <path
     style="fill:url(#linearGradient2449);fill-opacity:1.0;fill-rule:evenodd;stroke:none;stroke-width:1.0000000pt;stroke-linecap:butt;stroke-linejoin:miter;stroke-opacity:1.0000000;"
     d="M 149.46429,47.142857 C 149.46429,47.142857 218.57143,53.035714 223.39286,52.500000 C 228.21429,51.964286 276.42857,48.750000 279.64286,48.750000 C 282.85714,48.750000 275.35714,77.142857 276.42857,80.357143 C 277.50000,83.571429 276.42857,129.10714 276.96429,130.71429 C 277.50000,132.32143 210.18123,144.34612 202.43677,145.94779 C 196.99997,147.08792 184.82143,150.00000 184.28571,152.67857 C 183.75000,155.35714 155.35714,148.92857 153.21429,144.64286 C 151.07143,140.35714 141.42857,117.85714 142.50000,114.10714 C 143.57143,110.35714 144.10714,70.178571 145.17857,65.357143 C 146.25000,60.535714 150.00000,51.964286 149.46429,47.142857 z "
     id="path1782"
     sodipodi:nodetypes="ccccccccccc" />
  <path
     style="fill:url(#linearGradient2429);fill-opacity:1.0;fill-rule:evenodd;stroke:none;stroke-width:1.0000000pt;stroke-linecap:butt;stroke-linejoin:miter;stroke-opacity:1.0000000;"
     d="M 179.51768,154.58594 C 180.46500,160.26988 171.93910,220.89854 171.93910,220.89854 L 129.30957,201.95208 L 107.99481,193.89984 L 67.733584,165.00649 L 46.418820,152.69130 L 33.629961,144.16539 L 42.629528,134.69216 L 65.838938,120.48232 L 86.206380,105.79881 L 105.62650,123.32429 L 122.20465,135.63948 C 122.20465,135.63948 145.41406,145.11271 147.30870,143.69173 C 149.20335,142.27074 179.51768,154.58594 179.51768,154.58594 z "
     id="path2406" />
  <path
     style="fill:url(#linearGradient2425);fill-opacity:1.0;fill-rule:evenodd;stroke:none;stroke-width:1.0000000pt;stroke-linecap:butt;stroke-linejoin:miter;stroke-opacity:1.0000000;"
     d="M 184.72796,150.79665 L 204.14808,145.58637 L 246.30394,138.00779 L 285.61784,130.42921 L 312.14288,124.74527 L 324.45808,128.53456 L 332.98398,139.90244 L 343.87820,149.37567 L 363.29831,161.21720 L 372.29788,165.00649 L 361.40367,168.32212 L 341.03623,171.63775 L 314.98485,179.21634 L 272.35532,192.47886 L 243.93563,202.42575 L 214.56863,209.05701 L 200.83245,212.37264 L 184.25430,163.11185 L 184.72796,150.79665 z "
     id="path2407" />
  <path
     style="fill:url(#linearGradient2433);fill-opacity:1.0;fill-rule:evenodd;stroke:none;stroke-width:1.0000000pt;stroke-linecap:butt;stroke-linejoin:miter;stroke-opacity:1.0000000;"
     d="M 315.45851,122.37696 L 290.82812,103.90417 L 275.67095,100.58854 L 277.56560,48.485782 L 231.14678,51.801412 L 235.40973,44.696491 L 243.93563,32.854955 L 259.09280,22.908065 L 283.24953,32.854955 L 315.93217,43.275507 L 341.98355,51.327751 L 370.40324,64.590271 L 366.61394,77.852791 L 352.87776,89.694326 C 352.87776,89.694326 333.88024,105.12354 326.35272,113.37740 C 322.08977,121.90330 315.45851,122.37696 315.45851,122.37696 z "
     id="path2408"
     sodipodi:nodetypes="cccccccccccccccc" />
  <path
     style="fill:url(#linearGradient2437);fill-opacity:1.0;fill-rule:evenodd;stroke:none;stroke-width:1.0000000pt;stroke-linecap:butt;stroke-linejoin:miter;stroke-opacity:1.0000000;"
     d="M 210.53571,50.357143 L 190.17857,12.857143 L 165.53571,23.035714 L 144.10714,31.071429 L 117.85714,37.500000 L 99.642857,41.250000 L 78.750000,46.071429 L 42.321429,50.892857 L 53.571429,60.535714 L 69.642857,77.142857 L 84.642857,94.821429 L 89.464286,102.85714 L 101.94955,98.035714 L 117.85714,91.607143 L 111.42857,60.000000 L 144.64286,62.678571 L 145.17857,47.142857 L 154.82143,46.071429 L 184.82143,49.821429 L 210.53571,50.357143 z "
     id="path2409"
     sodipodi:nodetypes="cccccccccccccccccccc" />
  <path
     style="fill:url(#linearGradient2421);fill-opacity:1.0;fill-rule:evenodd;stroke:none;stroke-width:1.0000000pt;stroke-linecap:butt;stroke-linejoin:miter;stroke-opacity:1.0000000;"
     d="M 83.035714,176.78571 L 84.642857,204.10714 L 83.035714,241.60714 L 112.50000,266.25000 L 157.50000,285.00000 L 173.57143,286.60714 L 176.78571,226.07143 L 175.17857,213.75000 L 166.60714,220.71429 L 129.64286,201.42857 L 103.92857,192.32143 L 83.035714,176.78571 z "
     id="path2410" />
  <path
     style="fill:url(#linearGradient2417);fill-opacity:1.0;fill-rule:evenodd;stroke:none;stroke-width:1.0000000pt;stroke-linecap:butt;stroke-linejoin:miter;stroke-opacity:1.0000000;"
     d="M 183.75000,161.78571 L 201.42857,211.60714 L 220.17857,209.46429 L 256.60714,199.28571 L 303.21429,183.75000 L 315.00000,180.53571 L 313.39286,204.10714 L 314.46429,250.17857 L 312.85714,255.00000 L 294.10714,259.82143 L 250.71429,275.35714 L 214.28571,279.10714 L 179.46429,286.07143 L 171.42857,286.07143 L 176.25000,222.32143 L 177.85714,172.50000 L 183.75000,161.78571 z "
     id="path2411" />
  <path
     style="fill:url(#linearGradient2445);fill-opacity:1.0;fill-rule:evenodd;stroke:none;stroke-width:1.0000000pt;stroke-linecap:butt;stroke-linejoin:miter;stroke-opacity:1.0000000;"
     d="M 118.39286,91.607143 L 102.05357,97.500000 C 96.696429,99.107143 93.750000,100.98215 92.678571,101.78571 C 91.339286,108.21428 96.964286,116.25000 96.964286,116.25000 L 114.10714,130.71429 L 126.96429,136.07143 L 122.14286,108.75000 C 122.14286,108.75000 118.39286,92.678571 118.39286,91.607143 z "
     id="path2412"
     sodipodi:nodetypes="cccccccc" />
  <path
     style="fill:url(#linearGradient2441);fill-opacity:1.0;fill-rule:evenodd;stroke:none;stroke-width:1.0000000pt;stroke-linecap:butt;stroke-linejoin:miter;stroke-opacity:1.0000000;"
     d="M 278.03571,98.303571 L 279.64286,130.44643 L 315.53571,124.55357 L 294.37500,106.33929 L 278.03571,98.303571 z "
     id="path2413" />
  <path
     style="fill:#000000;fill-opacity:1.0000000;fill-rule:nonzero;stroke:none;stroke-width:1.0000000pt;stroke-linecap:butt;stroke-linejoin:miter;stroke-opacity:1.0000000"
     d="M 200.43490,9.5646629 C 197.46765,11.550566 193.68386,10.817550 190.38941,11.821428 C 184.84158,12.842484 179.79244,15.424219 174.85036,18.021802 C 155.79862,27.280884 135.64026,34.639024 114.62509,37.796285 C 95.977825,41.528161 77.524820,47.202959 58.371026,47.542053 C 54.681848,47.467657 50.871916,47.468196 47.321096,46.434966 C 46.155876,43.754956 43.316675,47.403687 41.413043,47.896980 C 39.653925,49.158119 35.999158,50.228013 35.444603,51.610668 C 37.428713,53.672860 39.831132,55.159675 42.263827,56.602951 C 48.059863,60.205329 54.117947,63.578957 58.872417,68.570220 C 65.862919,75.007633 73.547919,81.191581 77.989295,89.788284 C 80.175166,94.800653 81.217764,100.22608 81.790056,105.63950 C 80.698494,107.46909 80.916059,107.21857 80.541209,107.41415 C 80.806192,109.82379 76.529047,110.29563 75.075054,112.49556 C 64.310351,121.82242 51.484670,128.26416 39.692286,136.11862 C 35.952992,139.04542 32.765249,142.75696 28.449219,144.88615 C 28.060039,146.77009 31.870168,146.43008 33.084321,147.61995 C 47.823638,154.13555 61.157669,163.32820 74.336741,172.49517 C 76.821143,175.05409 81.692791,176.48900 81.026115,180.72575 C 82.020911,192.92001 83.966414,205.27447 81.675011,217.44787 C 81.122072,221.90854 79.755030,226.19758 78.347402,230.44051 C 77.202290,234.98792 76.816071,239.72023 75.232709,244.15631 C 76.174151,243.48221 78.197473,243.01282 76.004679,243.96995 C 73.995342,246.01691 79.092582,245.69049 80.138567,246.80369 C 97.286054,253.90226 110.53154,267.46741 126.60564,276.41621 C 138.33434,283.12145 152.62223,283.30022 164.15005,290.45609 C 166.12399,293.01551 168.91679,290.31087 170.70051,289.05522 C 173.14143,288.30563 166.25102,291.65331 170.10088,290.30964 C 178.54727,287.68083 187.26486,286.06262 195.79624,283.75518 C 212.82717,280.31693 230.70185,283.16637 247.39660,277.71815 C 265.16085,272.45591 282.76390,266.60564 299.96826,259.71949 C 302.54311,259.20013 306.43911,257.28936 308.34787,258.38066 C 311.18801,257.94513 314.33197,255.44912 317.30816,254.27557 C 319.30154,253.62241 320.57279,252.71166 319.49573,250.57817 C 318.79271,246.18403 318.72157,241.65869 317.31419,237.40592 C 314.82846,219.00562 315.50861,200.38267 315.46114,181.87736 C 316.79514,179.56111 320.14324,179.82165 322.29993,178.53718 C 330.46602,175.60111 338.84085,173.15565 347.42521,171.80666 C 353.25684,169.71423 359.32322,172.34254 365.25491,172.12014 C 368.33930,171.34768 370.08914,167.71439 373.59774,168.27950 C 375.11801,167.19826 379.41982,164.80362 375.08270,164.39442 C 369.81620,162.92876 364.82947,160.59538 359.90551,158.24625 C 349.76105,153.13966 340.16991,146.54974 332.70807,137.91476 C 328.71052,133.09659 325.56122,127.25562 325.16790,120.90417 C 326.16477,118.65200 327.58102,116.60316 328.21678,114.20695 C 332.45351,105.68518 340.54465,101.72785 348.10900,94.760504 C 355.10229,89.878159 362.56662,85.245976 367.85031,78.413386 C 370.93056,74.056988 372.66107,68.953592 375.26978,64.331283 C 377.62680,63.337313 374.75031,62.315602 373.52475,62.409147 C 357.25928,57.222836 342.89792,46.801423 325.87589,43.882927 C 320.15788,43.137363 314.60797,41.592302 309.09377,39.952908 C 300.05454,37.263429 291.04096,34.385851 282.30803,30.826022 C 277.49062,28.547071 271.68357,26.970791 268.73116,22.155513 C 268.01510,20.341728 267.82128,16.959044 265.39053,19.316853 C 263.17513,20.698654 263.38092,19.328834 265.26493,18.421501 C 266.04898,17.913253 268.15546,16.312692 266.18296,17.732731 C 263.48783,19.903227 260.30326,21.213028 257.10434,22.415890 C 250.23155,25.514659 244.53393,30.699804 239.84905,36.524499 C 236.48746,40.133796 233.20494,43.928587 231.00777,48.370192 C 228.82582,50.544889 225.52961,49.214866 222.82651,49.440223 C 220.06328,49.399473 217.29958,49.457564 214.53639,49.409803 C 209.85680,45.666523 206.34773,40.525463 204.62065,34.784116 C 203.06859,31.573484 201.64802,28.152879 202.06698,24.503636 C 202.25927,19.887577 203.28515,14.859972 200.80471,10.639875 L 200.58996,10.113007 L 200.43490,9.5646629 z M 190.03645,16.512548 C 192.05909,23.422506 197.31444,29.052915 198.37311,36.295841 C 200.05847,40.894912 203.26578,44.674552 206.02257,48.649869 C 204.26736,50.162798 201.14961,48.837589 198.76774,49.209369 C 185.44404,48.895321 171.93932,48.601330 158.96816,45.238591 C 155.91851,44.926952 153.70979,41.883659 150.94571,41.722960 C 148.63631,43.136695 146.58735,44.979708 144.17276,46.263011 C 142.03814,47.519284 139.83097,48.645315 137.63580,49.790482 C 137.74578,52.199735 140.51626,53.540640 140.82975,56.054203 C 142.58685,59.245512 138.56702,58.510306 136.70525,58.682184 C 130.62664,58.973775 124.30383,58.953419 118.59744,56.560882 C 116.79487,53.649038 114.06178,56.059663 112.03692,57.211039 C 109.46596,58.600443 106.89500,59.989839 104.32405,61.379243 C 105.76229,63.109840 107.38717,64.719677 108.66869,66.551397 C 112.78365,73.518224 113.75671,81.693491 115.69876,89.399249 C 116.02047,92.704493 111.54569,92.004538 109.58450,93.430610 C 104.73626,95.446859 100.02867,97.793235 95.431136,100.32667 C 83.447811,87.763285 70.307902,76.385335 57.796277,64.365997 C 54.252232,60.747583 50.723553,56.951831 48.535252,52.327355 C 73.875552,47.105321 99.481456,43.211247 124.72019,37.496205 C 141.77862,33.423259 158.75516,28.388063 174.39656,20.321071 C 179.33469,18.135876 184.69358,17.093171 190.03645,16.512548 z M 256.70997,25.517681 C 265.86980,27.691888 274.22848,32.285495 283.35013,34.598999 C 298.03564,38.945907 313.14434,42.037218 327.30312,48.014576 C 340.37297,52.830432 354.44379,56.573439 365.13499,65.978891 C 367.48105,67.324302 368.01205,69.310808 366.47688,71.520382 C 363.72552,78.041533 358.77454,83.259285 353.59863,87.941349 C 341.98714,98.878081 328.82647,108.12700 317.99724,119.89857 C 314.37328,119.81937 310.48721,118.77141 308.29912,115.66997 C 301.88682,109.13769 293.88453,104.30420 285.27042,101.27231 C 283.15561,100.20548 279.55218,100.21226 280.59450,96.943486 C 280.27434,82.878692 278.75974,68.328663 283.32282,54.738282 C 284.18115,52.062794 285.50792,49.286889 285.17959,46.437926 C 283.94624,43.902751 280.68582,44.737677 278.50895,45.259732 C 264.45691,48.039374 250.15382,49.687279 235.81955,49.699688 C 235.23319,44.854187 237.76498,39.958863 241.82771,37.341360 C 244.77398,35.035063 247.62542,32.590575 250.26442,29.950724 C 252.35859,28.398273 254.39762,26.743313 256.70997,25.517681 z M 151.45371,48.671064 C 177.06926,48.964420 202.44565,53.966210 228.09779,53.151751 C 242.05115,54.362575 255.88386,50.612926 269.83822,51.618367 C 273.46580,51.008182 274.33730,55.400379 273.67256,58.071219 C 273.88156,64.640949 274.53461,71.197821 274.24590,77.778664 C 274.01473,90.091136 273.34391,102.39545 273.43576,114.71273 C 273.29068,120.26397 272.97737,125.81372 272.37310,131.33500 C 251.49205,135.50924 230.55048,139.38798 209.74647,143.93915 C 203.50753,145.24543 197.18280,146.18432 190.96184,147.53143 C 188.19987,148.09055 184.75173,150.51649 182.80307,150.85575 C 183.85417,150.35146 182.52332,152.02137 180.32710,150.15064 C 175.40681,147.17309 169.57708,146.20397 164.01331,145.10174 C 161.25654,144.18065 157.05632,144.92221 155.16356,143.19133 C 153.31484,134.39447 149.72527,126.10252 147.16515,117.51712 C 145.51815,110.22694 145.48339,102.66879 145.76086,95.231677 C 146.23469,83.622344 148.35944,72.158067 148.97159,60.561606 C 150.05735,58.356547 148.72051,55.869532 149.34924,53.543646 C 149.89172,51.676724 148.15970,47.700370 151.45371,48.671064 z M 116.99482,64.081718 C 124.86603,64.495878 132.78492,64.641423 140.56816,66.002950 C 143.67253,66.019705 142.15932,70.175730 142.48806,72.141744 C 142.37368,78.687176 143.95418,85.123358 143.66062,91.670089 C 143.47390,100.98953 141.74477,110.17531 140.71160,119.41708 C 141.36976,126.69908 143.79273,133.66177 145.24195,140.79202 C 146.05597,144.00875 141.46072,141.19321 139.78331,141.36821 C 136.99228,140.75584 134.22985,139.99266 131.55451,138.98422 C 129.16710,129.87366 128.02190,120.42169 124.56424,111.60926 C 121.85666,102.47228 122.86742,92.696106 120.07857,83.569587 C 118.53129,77.172177 117.31688,70.666961 116.99482,64.081718 z M 116.46180,93.098255 C 118.42900,102.20926 120.93222,111.42971 120.11756,120.83770 C 120.31587,125.07924 121.65756,129.17346 121.85307,133.41530 C 119.52929,132.50308 117.89603,130.45637 115.73281,129.24713 C 107.10429,122.75723 99.092265,115.08148 93.615561,105.70126 C 92.642442,103.24592 94.511502,101.17065 96.927503,100.67045 C 99.692547,100.17900 110.14879,96.760981 116.46180,93.098255 z M 280.76106,103.01979 C 286.42976,104.36686 291.52769,107.52134 295.58937,111.65440 C 300.05337,115.73029 304.31178,120.33679 310.08969,122.54635 C 311.61441,123.13659 312.82856,123.69712 310.48394,123.81931 C 302.09345,125.42469 293.71039,127.06865 285.33375,128.74473 C 283.18193,124.09756 281.34210,119.20291 281.18288,114.02432 C 280.87918,110.36384 280.91030,106.68746 280.76106,103.01979 z M 83.293378,109.00452 C 89.800112,113.16352 94.857511,119.15095 101.19445,123.54179 C 110.43838,130.49552 120.70355,136.12142 131.53800,140.16926 C 144.05480,144.65161 157.55241,146.78699 169.07709,153.74172 C 172.43939,155.36468 173.26122,159.45655 173.98397,162.78168 C 175.16067,170.26535 173.72322,177.85058 172.24115,185.18296 C 170.69017,191.32529 169.70272,197.59468 169.45875,203.92859 C 169.21631,207.75712 169.04356,211.59126 168.67848,215.41095 C 164.83052,213.78888 160.89091,212.32020 157.37626,210.02634 C 146.60503,204.21725 134.73211,200.92549 122.91928,198.00307 C 106.76277,192.65918 93.427460,181.62699 80.415318,171.05849 C 73.031700,164.62278 63.748257,161.13522 55.633945,155.80045 C 49.310302,151.68479 43.087313,146.45710 40.540040,139.10578 C 49.822998,130.36377 61.412041,124.73264 71.711675,117.35607 C 75.646986,114.67807 79.525118,111.91371 83.293378,109.00452 z M 313.15334,125.83654 C 325.90187,131.94828 334.52013,143.65801 345.78782,151.81467 C 352.86634,157.00916 361.35192,159.88457 368.30629,165.27024 C 356.43620,166.95283 344.97973,170.62192 333.37560,173.51433 C 311.52013,179.51951 289.84997,186.17868 268.14007,192.67951 C 251.81024,198.16336 235.94440,205.95307 218.58136,207.56713 C 215.87582,207.77365 213.15060,207.77897 210.44995,207.49991 C 208.82103,209.49810 205.66510,210.60176 205.07060,207.18273 C 200.91962,200.49075 196.17260,193.65773 195.49716,185.56791 C 193.86928,175.97807 189.62221,167.12238 187.14695,157.76128 C 188.60710,155.33189 187.62435,150.80794 190.44676,149.85351 C 210.41864,143.88839 231.28251,142.07468 251.62690,137.81835 C 272.15263,133.91133 292.61322,129.66878 313.15334,125.83654 z M 183.06051,172.47995 C 185.52088,179.44844 186.89335,186.79620 190.03816,193.51901 C 192.75802,201.34383 192.79811,210.02494 196.92273,217.36508 C 199.42053,218.35858 200.94553,214.92172 203.44842,214.92123 C 230.59161,206.70281 258.36397,200.74846 285.51425,192.55433 C 294.61016,189.55568 303.44558,185.84406 312.33980,182.30797 C 311.37503,201.73832 314.64154,221.30802 311.55619,240.63521 C 310.66647,244.52803 309.46450,248.40852 309.49906,252.43912 C 308.77831,255.24641 305.31867,254.61012 303.21123,255.46740 C 297.41659,257.40486 291.86564,260.00202 286.10421,262.04136 C 271.04673,267.75449 255.56332,272.49801 239.64155,275.08059 C 226.43401,277.47841 212.88017,277.43188 199.77642,280.49261 C 192.86455,281.83367 185.98883,283.35881 179.15174,285.03945 C 178.67781,275.87202 180.79855,266.72303 179.62885,257.56743 C 178.89039,243.90330 176.72944,229.97479 180.01474,216.46695 C 180.96916,209.67850 180.86254,202.79611 181.28403,195.96308 C 181.62098,188.11982 182.02140,180.26704 183.06051,172.47995 z M 85.182303,181.41962 C 92.834439,188.06278 101.39986,194.03046 111.27369,196.77720 C 120.39746,199.83677 129.42214,203.43603 137.49735,208.74320 C 143.26388,212.26152 149.12874,215.65182 155.28626,218.43691 C 159.50181,220.87540 163.95000,222.97199 168.13184,225.41816 C 170.52412,225.49692 171.87495,222.51673 174.11625,222.41900 C 173.15746,240.20787 168.29332,257.82105 169.58239,275.75690 C 169.34923,278.23042 170.27349,282.36573 168.92325,283.77870 C 157.03832,281.23439 144.24565,280.61359 133.69487,273.96481 C 127.70557,270.14707 122.21479,265.45710 115.57625,262.74590 C 106.35153,258.34714 96.298110,254.20711 89.910712,245.83580 C 87.743173,242.81954 86.117471,239.22577 85.928028,235.48512 C 86.683540,231.01133 87.604058,226.37985 86.660070,221.84680 C 87.238869,210.68897 85.490519,199.60172 85.124276,188.47331 C 85.081956,186.12210 85.102671,183.76983 85.182303,181.41962 z "
     id="path1088"
     sodipodi:nodetypes="cccccccccccccccccccccccccccccccccccccccccccccccccccccccccccccccccccccccccccccccccccccccccccccccccccccccccccccccccccccccccccccccccccccccccccccccccccccccccccccccccccccccccccccccccccccccccccccccccccccccccccccccc" />
</svg>
